<?xml version="1.0" encoding="UTF-8" standalone="no"?>
<svg
   xmlns:dc="http://purl.org/dc/elements/1.1/"
   xmlns:cc="http://creativecommons.org/ns#"
   xmlns:rdf="http://www.w3.org/1999/02/22-rdf-syntax-ns#"
   xmlns:svg="http://www.w3.org/2000/svg"
   xmlns="http://www.w3.org/2000/svg"
   viewBox="0 0 568.09332 155.39867"
   height="155.39867"
   width="568.09332"
   xml:space="preserve"
   id="svg86"
   version="1.1"><metadata
     id="metadata92"><rdf:RDF><cc:Work
         rdf:about=""><dc:format>image/svg+xml</dc:format><dc:type
           rdf:resource="http://purl.org/dc/dcmitype/StillImage" /><dc:title></dc:title></cc:Work></rdf:RDF></metadata><defs
     id="defs90"><clipPath
       id="clipPath102"
       clipPathUnits="userSpaceOnUse"><path
         id="path100"
         d="M 0,0 H 549.82567 V -102.71483 H 0 Z" /></clipPath></defs><g
     transform="matrix(1.3333333,0,0,-1.3333333,0,155.39867)"
     id="g94"><g
       transform="matrix(0.70868497,0,0,0.70868497,19.466,92.584)"
       id="g96"><g
         id="g98" /><g
         id="g160"><g
           id="g158"
           clip-path="url(#clipPath102)"><g
             id="g156"><g
               id="g106"
               transform="translate(-45.179,49.291)"><path
                 id="path104"
                 style="fill:#00214e;fill-opacity:1;fill-rule:nonzero;stroke:none"
                 d="m 136.325,-96.368 c -9.781,0.013 -17.708,7.939 -17.72,17.721 v 28.029 h 8.883 v -28.037 c 0,-4.881 3.956,-8.838 8.837,-8.838 4.881,0 8.838,3.957 8.838,8.838 v 28.037 h 8.883 v -28.037 c -0.017,-9.779 -7.942,-17.7 -17.721,-17.713 z" /></g><g
               id="g110"><path
                 id="path108"
                 style="fill:#00214e;fill-opacity:1;fill-rule:nonzero;stroke:none"
                 d="m 189.345,-45.607 h -27.684 v 44.279 h 8.883 v -35.396 h 18.801 z" /></g><g
               id="g114"
               transform="translate(-45.179,49.291)"><path
                 id="path112"
                 style="fill:#00214e;fill-opacity:1;fill-rule:nonzero;stroke:none"
                 d="m 254.78,-62.27 c 9.393,0 17.053,-7.412 17.053,-16.61 0,-9.198 -7.667,-16.61 -17.053,-16.61 -9.385,0 -17.053,7.412 -17.053,16.61 0,9.198 7.668,16.61 17.053,16.61 z m 0,-24.915 c 4.579,0.033 8.267,3.766 8.245,8.345 -0.022,4.579 -3.746,8.276 -8.325,8.265 -4.579,-0.011 -8.285,-3.726 -8.285,-8.305 0.008,-2.208 0.895,-4.322 2.464,-5.874 1.57,-1.553 3.693,-2.417 5.901,-2.401 z" /></g><g
               id="g118"
               transform="translate(-45.179,49.291)"><path
                 id="path116"
                 style="fill:#00214e;fill-opacity:1;fill-rule:nonzero;stroke:none"
                 d="m 276.777,-62.42 h 8.62 v -17.105 c 0,-4.922 1.276,-7.667 5.815,-7.667 4.411,0 6.902,2.813 6.902,8.687 v 16.085 h 8.56 v -32.402 h -8.56 v 4.148 c -2.252,-3.027 -5.807,-4.806 -9.581,-4.794 -9.453,0 -11.756,7.503 -11.756,14.502 z" /></g><g
               id="g122"
               transform="translate(-45.179,49.291)"><path
                 id="path120"
                 style="fill:#00214e;fill-opacity:1;fill-rule:nonzero;stroke:none"
                 d="m 311.048,-62.42 h 8.553 l 5.251,-13.744 c 1.853,-4.982 3.196,-10.091 3.196,-10.091 0,0 1.403,5.109 3.256,10.091 l 5.169,13.744 h 8.561 L 332.28,-94.822 h -8.478 z" /></g><g
               id="g126"
               transform="translate(-45.179,49.291)"><path
                 id="path124"
                 style="fill:#00214e;fill-opacity:1;fill-rule:nonzero;stroke:none"
                 d="m 361.036,-62.27 c 3.777,-0.004 7.329,-1.792 9.581,-4.824 v 4.674 h 8.56 v -32.402 h -8.56 v 4.148 c -2.252,-3.027 -5.808,-4.806 -9.581,-4.794 -8.943,0 -14.757,7.413 -14.757,16.611 0,9.198 5.814,16.587 14.757,16.587 z m 2.078,-24.885 c 4.502,0 7.503,3.384 7.503,8.305 0,4.922 -3.061,8.328 -7.503,8.328 -4.441,0 -7.667,-3.384 -7.667,-8.305 0,-4.922 3.098,-8.328 7.667,-8.328 z" /></g><g
               id="g130"
               transform="translate(-45.179,49.291)"><path
                 id="path128"
                 style="fill:#00214e;fill-opacity:1;fill-rule:nonzero;stroke:none"
                 d="m 391.316,-49.516 c 2.805,0.017 5.092,-2.244 5.109,-5.049 0.016,-2.805 -2.244,-5.092 -5.049,-5.109 -2.805,-0.016 -5.093,2.244 -5.109,5.049 0.008,2.795 2.254,5.068 5.049,5.109 z m -4.277,-12.889 h 8.561 v -32.402 h -8.568 z" /></g><g
               id="g134"
               transform="translate(-45.179,49.291)"><path
                 id="path132"
                 style="fill:#00214e;fill-opacity:1;fill-rule:nonzero;stroke:none"
                 d="m 402.877,-62.42 h 8.56 v -4.614 c 2.356,3.121 6.085,4.899 9.993,4.764 9.138,0 11.374,-6.197 11.374,-15.004 v -17.563 h -8.628 v 16.625 c 0,4.921 -0.578,7.667 -5.492,7.667 -4.411,0 -7.217,-3.383 -7.217,-8.305 v -15.972 h -8.59 z" /></g><g
               id="g138"
               transform="translate(-45.179,49.291)"><path
                 id="path136"
                 style="fill:#00214e;fill-opacity:1;fill-rule:nonzero;stroke:none"
                 d="m 183.883,-96.368 c -10.657,-0.003 -19.987,7.154 -22.746,17.449 -2.759,10.294 1.742,21.157 10.972,26.484 9.231,5.327 20.889,3.789 28.422,-3.75 l -6.28,-6.28 c -4.192,4.194 -10.498,5.449 -15.976,3.18 -5.479,-2.269 -9.051,-7.615 -9.051,-13.544 0,-5.93 3.572,-11.275 9.051,-13.544 5.478,-2.269 11.784,-1.014 15.976,3.179 l 6.28,-6.279 c -4.406,-4.43 -10.401,-6.913 -16.648,-6.895 z" /></g><g
               id="g142"><path
                 id="path140"
                 style="fill:#9cb7d4;fill-opacity:1;fill-rule:nonzero;stroke:none"
                 d="M 44.264,-1.41 H 59.021 V -45.674 H 44.264 Z" /></g><g
               id="g146"><path
                 id="path144"
                 style="fill:#5db3e6;fill-opacity:1;fill-rule:nonzero;stroke:none"
                 d="M 29.507,-45.674 H 14.757 V -1.41 H 0 v -59.022 h 44.264 v 14.758 H 29.507 Z" /></g><g
               id="g150"><path
                 id="path148"
                 style="fill:#00214e;fill-opacity:1;fill-rule:nonzero;stroke:none"
                 d="M 14.757,-1.41 H 44.264 V -45.674 H 14.757 Z" /></g><g
               id="g154"><path
                 id="path152"
                 style="fill:#4a96cd;fill-opacity:1;fill-rule:nonzero;stroke:none"
                 d="m 75.526,-94.86 h 12.559 v -1.913 H 73.321 v 20.879 H 87.643 V -77.8 H 75.526 v -7.427 H 86.33 V -87.11 H 75.526 Z m 3.046,20.669 4.089,3.699 h 2.828 l -4.831,-3.699 z m 20.527,-22.732 c -1.556,0 -2.944,0.34 -4.164,1.02 -1.225,0.676 -2.186,1.623 -2.881,2.844 -0.695,1.225 -1.043,2.603 -1.043,4.133 v 0 c 0,1.531 0.348,2.904 1.043,4.119 0.695,1.211 1.656,2.153 2.881,2.829 1.22,0.68 2.608,1.02 4.164,1.02 v 0 c 1.35,0 2.558,-0.265 3.623,-0.795 1.061,-0.525 1.901,-1.296 2.521,-2.311 v 0 l -1.583,-1.073 c -0.52,0.775 -1.178,1.356 -1.973,1.741 -0.795,0.39 -1.658,0.585 -2.588,0.585 v 0 c -1.136,0 -2.156,-0.253 -3.061,-0.758 -0.906,-0.51 -1.611,-1.233 -2.116,-2.168 -0.51,-0.935 -0.765,-1.998 -0.765,-3.189 v 0 c 0,-1.215 0.255,-2.285 0.765,-3.211 0.505,-0.92 1.21,-1.635 2.116,-2.145 0.905,-0.505 1.925,-0.758 3.061,-0.758 v 0 c 0.93,0 1.793,0.188 2.588,0.563 0.795,0.38 1.453,0.958 1.973,1.733 v 0 l 1.583,-1.073 c -0.62,-1.015 -1.465,-1.786 -2.536,-2.311 -1.075,-0.53 -2.278,-0.795 -3.608,-0.795 z m 16.43,0 c -1.511,0 -2.871,0.345 -4.081,1.035 -1.216,0.686 -2.171,1.633 -2.866,2.844 -0.696,1.215 -1.043,2.588 -1.043,4.118 v 0 c 0,1.531 0.347,2.904 1.043,4.119 0.695,1.211 1.65,2.153 2.866,2.829 1.21,0.68 2.57,1.02 4.081,1.02 v 0 c 1.51,0 2.873,-0.34 4.089,-1.02 1.215,-0.676 2.165,-1.618 2.851,-2.829 0.685,-1.215 1.027,-2.588 1.027,-4.119 v 0 c 0,-1.53 -0.342,-2.903 -1.027,-4.118 -0.686,-1.211 -1.636,-2.158 -2.851,-2.844 -1.216,-0.69 -2.579,-1.035 -4.089,-1.035 z m 0,1.883 c 1.115,0 2.116,0.253 3.001,0.758 0.885,0.51 1.575,1.23 2.07,2.16 0.501,0.936 0.751,2.001 0.751,3.196 v 0 c 0,1.191 -0.25,2.254 -0.751,3.189 -0.495,0.935 -1.185,1.658 -2.07,2.168 -0.885,0.505 -1.886,0.758 -3.001,0.758 v 0 c -1.11,0 -2.108,-0.253 -2.994,-0.758 -0.885,-0.51 -1.583,-1.233 -2.093,-2.168 -0.505,-0.935 -0.757,-1.998 -0.757,-3.189 v 0 c 0,-1.195 0.252,-2.26 0.757,-3.196 0.51,-0.93 1.208,-1.65 2.093,-2.16 0.886,-0.505 1.884,-0.758 2.994,-0.758 z m 12.289,-1.733 v 22.132 h 2.123 v -22.132 z m 21.719,7.847 -0.03,-0.66 h -13.122 c 0.115,-1.63 0.741,-2.946 1.876,-3.946 1.135,-1.005 2.568,-1.508 4.299,-1.508 v 0 c 0.97,0 1.863,0.173 2.678,0.518 0.816,0.35 1.523,0.863 2.123,1.538 v 0 l 1.193,-1.373 c -0.695,-0.835 -1.565,-1.471 -2.611,-1.906 -1.045,-0.44 -2.193,-0.66 -3.443,-0.66 v 0 c -1.611,0 -3.039,0.345 -4.284,1.035 -1.24,0.686 -2.211,1.633 -2.911,2.844 -0.695,1.215 -1.043,2.588 -1.043,4.118 v 0 c 0,1.531 0.333,2.904 0.998,4.119 0.67,1.211 1.586,2.153 2.746,2.829 1.165,0.68 2.473,1.02 3.924,1.02 v 0 c 1.45,0 2.753,-0.34 3.908,-1.02 1.156,-0.676 2.061,-1.613 2.716,-2.814 0.655,-1.205 0.983,-2.583 0.983,-4.134 z m -7.607,6.145 c -1.511,0 -2.779,-0.483 -3.804,-1.448 -1.025,-0.965 -1.606,-2.223 -1.741,-3.774 v 0 h 11.126 c -0.14,1.551 -0.722,2.809 -1.748,3.774 -1.025,0.965 -2.303,1.448 -3.833,1.448 z m 27.833,1.823 c 1.471,0 2.801,-0.335 3.992,-1.005 1.195,-0.666 2.13,-1.603 2.806,-2.814 0.675,-1.215 1.012,-2.598 1.012,-4.149 v 0 c 0,-1.57 -0.337,-2.963 -1.012,-4.178 -0.676,-1.211 -1.606,-2.149 -2.791,-2.814 -1.181,-0.67 -2.516,-1.005 -4.007,-1.005 v 0 c -1.275,0 -2.425,0.265 -3.451,0.795 -1.02,0.525 -1.86,1.296 -2.52,2.311 v 0 -8.74 h -2.116 v 21.479 h 2.033 v -3.106 c 0.635,1.035 1.476,1.831 2.521,2.386 1.04,0.56 2.218,0.84 3.533,0.84 z m -0.15,-14.082 c 1.091,0 2.084,0.253 2.979,0.758 0.895,0.51 1.598,1.23 2.108,2.16 0.505,0.936 0.758,2.001 0.758,3.196 v 0 c 0,1.191 -0.253,2.249 -0.758,3.174 -0.51,0.925 -1.213,1.648 -2.108,2.168 -0.895,0.515 -1.888,0.773 -2.979,0.773 v 0 c -1.115,0 -2.115,-0.258 -3.001,-0.773 -0.885,-0.52 -1.58,-1.243 -2.085,-2.168 -0.51,-0.925 -0.765,-1.983 -0.765,-3.174 v 0 c 0,-1.195 0.255,-2.26 0.765,-3.196 0.505,-0.93 1.2,-1.65 2.085,-2.16 0.886,-0.505 1.886,-0.758 3.001,-0.758 z m 18.704,-1.883 c -1.511,0 -2.874,0.345 -4.089,1.035 -1.215,0.686 -2.171,1.633 -2.866,2.844 -0.695,1.215 -1.043,2.588 -1.043,4.118 v 0 c 0,1.531 0.348,2.904 1.043,4.119 0.695,1.211 1.651,2.153 2.866,2.829 1.215,0.68 2.578,1.02 4.089,1.02 v 0 c 1.51,0 2.871,-0.34 4.081,-1.02 1.215,-0.676 2.166,-1.618 2.851,-2.829 0.685,-1.215 1.028,-2.588 1.028,-4.119 v 0 c 0,-1.53 -0.343,-2.903 -1.028,-4.118 -0.685,-1.211 -1.636,-2.158 -2.851,-2.844 -1.21,-0.69 -2.571,-1.035 -4.081,-1.035 z m 0,1.883 c 1.11,0 2.108,0.253 2.993,0.758 0.886,0.51 1.578,1.23 2.078,2.16 0.496,0.936 0.743,2.001 0.743,3.196 v 0 c 0,1.191 -0.247,2.254 -0.743,3.189 -0.5,0.935 -1.192,1.658 -2.078,2.168 -0.885,0.505 -1.883,0.758 -2.993,0.758 v 0 c -1.116,0 -2.116,-0.253 -3.001,-0.758 -0.885,-0.51 -1.581,-1.233 -2.086,-2.168 -0.51,-0.935 -0.765,-1.998 -0.765,-3.189 v 0 c 0,-1.195 0.255,-2.26 0.765,-3.196 0.505,-0.93 1.201,-1.65 2.086,-2.16 0.885,-0.505 1.885,-0.758 3.001,-0.758 z m 12.289,-1.733 v 22.132 h 2.115 v -22.132 z m 19.116,15.695 h 2.093 l -7.848,-17.571 c -0.635,-1.47 -1.37,-2.515 -2.205,-3.136 -0.836,-0.615 -1.841,-0.922 -3.016,-0.922 v 0 c -0.755,0 -1.461,0.12 -2.116,0.36 -0.655,0.235 -1.223,0.592 -1.703,1.073 v 0 l 0.99,1.583 c 0.796,-0.796 1.748,-1.193 2.859,-1.193 v 0 c 0.715,0 1.328,0.197 1.838,0.592 0.505,0.401 0.978,1.076 1.418,2.026 v 0 l 0.682,1.523 -7.007,15.665 h 2.206 l 5.904,-13.339 z m 13.039,-13.219 0.743,-1.523 c -0.396,-0.355 -0.886,-0.628 -1.471,-0.818 -0.59,-0.19 -1.203,-0.285 -1.838,-0.285 v 0 c -1.47,0 -2.603,0.398 -3.399,1.193 -0.795,0.795 -1.192,1.92 -1.192,3.376 v 0 9.483 h -2.806 v 1.793 h 2.806 v 3.429 h 2.115 v -3.429 h 4.772 v -1.793 h -4.772 v -9.363 c 0,-0.935 0.233,-1.648 0.698,-2.138 0.47,-0.485 1.143,-0.728 2.018,-0.728 v 0 c 0.435,0 0.858,0.07 1.268,0.21 0.405,0.14 0.758,0.338 1.058,0.593 z m 17.72,5.371 -0.03,-0.66 h -13.129 c 0.12,-1.63 0.748,-2.946 1.883,-3.946 1.131,-1.005 2.561,-1.508 4.292,-1.508 v 0 c 0.975,0 1.87,0.173 2.686,0.518 0.815,0.35 1.52,0.863 2.115,1.538 v 0 l 1.201,-1.373 c -0.701,-0.835 -1.571,-1.471 -2.611,-1.906 -1.046,-0.44 -2.196,-0.66 -3.451,-0.66 v 0 c -1.611,0 -3.036,0.345 -4.277,1.035 -1.245,0.686 -2.215,1.633 -2.911,2.844 -0.695,1.215 -1.042,2.588 -1.042,4.118 v 0 c 0,1.531 0.332,2.904 0.997,4.119 0.666,1.211 1.581,2.153 2.746,2.829 1.166,0.68 2.474,1.02 3.924,1.02 v 0 c 1.45,0 2.753,-0.34 3.909,-1.02 1.15,-0.676 2.055,-1.613 2.716,-2.814 0.655,-1.205 0.982,-2.583 0.982,-4.134 z m -7.607,6.145 c -1.51,0 -2.778,-0.483 -3.804,-1.448 -1.025,-0.965 -1.608,-2.223 -1.748,-3.774 v 0 h 11.126 c -0.135,1.551 -0.715,2.809 -1.74,3.774 -1.026,0.965 -2.304,1.448 -3.834,1.448 z m 18.433,-14.142 c -1.55,0 -2.938,0.34 -4.164,1.02 -1.22,0.676 -2.178,1.623 -2.873,2.844 -0.695,1.225 -1.043,2.603 -1.043,4.133 v 0 c 0,1.531 0.348,2.904 1.043,4.119 0.695,1.211 1.653,2.153 2.873,2.829 1.226,0.68 2.614,1.02 4.164,1.02 v 0 c 1.351,0 2.559,-0.265 3.624,-0.795 1.065,-0.525 1.906,-1.296 2.521,-2.311 v 0 l -1.583,-1.073 c -0.515,0.775 -1.171,1.356 -1.966,1.741 -0.795,0.39 -1.66,0.585 -2.596,0.585 v 0 c -1.135,0 -2.155,-0.253 -3.061,-0.758 -0.9,-0.51 -1.605,-1.233 -2.115,-2.168 -0.505,-0.935 -0.758,-1.998 -0.758,-3.189 v 0 c 0,-1.215 0.253,-2.285 0.758,-3.211 0.51,-0.92 1.215,-1.635 2.115,-2.145 0.906,-0.505 1.926,-0.758 3.061,-0.758 v 0 c 0.936,0 1.801,0.188 2.596,0.563 0.795,0.38 1.451,0.958 1.966,1.733 v 0 l 1.583,-1.073 c -0.615,-1.015 -1.461,-1.786 -2.536,-2.311 -1.075,-0.53 -2.278,-0.795 -3.609,-0.795 z m 18.043,15.965 c 1.971,0 3.539,-0.573 4.704,-1.718 1.161,-1.145 1.741,-2.811 1.741,-4.997 v 0 -9.1 h -2.116 v 8.89 c 0,1.631 -0.407,2.874 -1.223,3.729 -0.815,0.855 -1.978,1.283 -3.488,1.283 v 0 c -1.691,0 -3.029,-0.503 -4.014,-1.508 -0.985,-1.005 -1.478,-2.391 -1.478,-4.156 v 0 -8.238 h -2.116 v 22.132 h 2.116 v -9.183 c 0.58,0.915 1.376,1.621 2.386,2.116 1.015,0.5 2.178,0.75 3.488,0.75 z m 20.197,0 c 1.97,0 3.536,-0.573 4.696,-1.718 1.166,-1.145 1.748,-2.811 1.748,-4.997 v 0 -9.1 h -2.115 v 8.89 c 0,1.631 -0.408,2.874 -1.223,3.729 -0.815,0.855 -1.978,1.283 -3.489,1.283 v 0 c -1.69,0 -3.028,-0.503 -4.014,-1.508 -0.985,-1.005 -1.478,-2.391 -1.478,-4.156 v 0 -8.238 h -2.115 v 15.695 h 2.025 v -2.896 c 0.576,0.955 1.376,1.696 2.401,2.221 1.026,0.53 2.213,0.795 3.564,0.795 z m 12.199,-15.815 v 15.695 h 2.123 v -15.695 z m 1.08,19.124 c -0.44,0 -0.81,0.147 -1.11,0.442 -0.295,0.3 -0.443,0.66 -0.443,1.081 v 0 c 0,0.395 0.148,0.742 0.443,1.042 0.3,0.295 0.67,0.443 1.11,0.443 v 0 c 0.435,0 0.803,-0.143 1.103,-0.428 0.295,-0.29 0.443,-0.632 0.443,-1.027 v 0 c 0,-0.441 -0.148,-0.811 -0.443,-1.111 -0.3,-0.295 -0.668,-0.442 -1.103,-0.442 z m 19.236,-3.429 h 2.026 v -21.479 h -2.116 v 8.74 c -0.655,-1.015 -1.495,-1.786 -2.521,-2.311 -1.025,-0.53 -2.173,-0.795 -3.443,-0.795 v 0 c -1.491,0 -2.829,0.335 -4.014,1.005 -1.18,0.665 -2.111,1.603 -2.791,2.814 -0.675,1.215 -1.013,2.608 -1.013,4.178 v 0 c 0,1.551 0.338,2.934 1.013,4.149 0.68,1.211 1.616,2.148 2.806,2.814 1.195,0.67 2.528,1.005 3.999,1.005 v 0 c 1.31,0 2.488,-0.28 3.533,-0.84 1.046,-0.555 1.886,-1.351 2.521,-2.386 v 0 z m -5.874,-13.962 c 1.09,0 2.078,0.253 2.963,0.758 0.885,0.51 1.583,1.23 2.093,2.16 0.505,0.936 0.758,2.001 0.758,3.196 v 0 c 0,1.191 -0.253,2.249 -0.758,3.174 -0.51,0.925 -1.208,1.648 -2.093,2.168 -0.885,0.515 -1.873,0.773 -2.963,0.773 v 0 c -1.116,0 -2.116,-0.258 -3.001,-0.773 -0.885,-0.52 -1.581,-1.243 -2.086,-2.168 -0.505,-0.925 -0.758,-1.983 -0.758,-3.174 v 0 c 0,-1.195 0.253,-2.26 0.758,-3.196 0.505,-0.93 1.201,-1.65 2.086,-2.16 0.885,-0.505 1.885,-0.758 3.001,-0.758 z m 25.83,13.962 h 2.116 v -15.695 h -2.026 v 2.866 c -0.555,-0.955 -1.32,-1.696 -2.295,-2.221 -0.976,-0.53 -2.091,-0.795 -3.346,-0.795 v 0 c -2.046,0 -3.662,0.573 -4.847,1.718 -1.18,1.145 -1.77,2.821 -1.77,5.027 v 0 9.1 h 2.115 v -8.89 c 0,-1.651 0.408,-2.904 1.223,-3.759 0.815,-0.855 1.978,-1.283 3.489,-1.283 v 0 c 1.65,0 2.953,0.503 3.908,1.508 0.956,1 1.433,2.396 1.433,4.186 v 0 z m 21.75,-7.848 -0.03,-0.66 h -13.129 c 0.12,-1.63 0.747,-2.946 1.883,-3.946 1.13,-1.005 2.56,-1.508 4.291,-1.508 v 0 c 0.975,0 1.871,0.173 2.686,0.518 0.815,0.35 1.52,0.863 2.116,1.538 v 0 l 1.192,-1.373 c -0.695,-0.835 -1.565,-1.471 -2.61,-1.906 -1.041,-0.44 -2.189,-0.66 -3.444,-0.66 v 0 c -1.611,0 -3.036,0.345 -4.276,1.035 -1.246,0.686 -2.216,1.633 -2.911,2.844 -0.695,1.215 -1.043,2.588 -1.043,4.118 v 0 c 0,1.531 0.333,2.904 0.998,4.119 0.665,1.211 1.58,2.153 2.746,2.829 1.16,0.68 2.468,1.02 3.923,1.02 v 0 c 1.451,0 2.754,-0.34 3.909,-1.02 1.15,-0.676 2.053,-1.613 2.708,-2.814 0.661,-1.205 0.991,-2.583 0.991,-4.134 z m -7.608,6.145 c -1.515,0 -2.783,-0.483 -3.803,-1.448 -1.026,-0.965 -1.608,-2.223 -1.748,-3.774 v 0 h 11.126 c -0.14,1.551 -0.721,2.809 -1.741,3.774 -1.025,0.965 -2.303,1.448 -3.834,1.448 z m 31.945,8.14 h 2.116 v -22.132 h -2.026 v 3.106 c -0.635,-1.055 -1.475,-1.861 -2.52,-2.416 -1.046,-0.56 -2.224,-0.84 -3.534,-0.84 v 0 c -1.47,0 -2.803,0.34 -3.999,1.02 -1.195,0.676 -2.13,1.618 -2.806,2.829 -0.675,1.215 -1.012,2.598 -1.012,4.148 v 0 c 0,1.551 0.337,2.934 1.012,4.149 0.676,1.211 1.611,2.148 2.806,2.814 1.196,0.67 2.529,1.005 3.999,1.005 v 0 c 1.27,0 2.418,-0.265 3.444,-0.795 1.025,-0.525 1.865,-1.296 2.52,-2.311 v 0 z m -5.784,-20.399 c 1.09,0 2.078,0.253 2.963,0.758 0.886,0.51 1.583,1.23 2.094,2.16 0.505,0.936 0.757,2.001 0.757,3.196 v 0 c 0,1.191 -0.252,2.254 -0.757,3.189 -0.511,0.935 -1.208,1.658 -2.094,2.168 -0.885,0.505 -1.873,0.758 -2.963,0.758 v 0 c -1.115,0 -2.116,-0.253 -3.001,-0.758 -0.885,-0.51 -1.58,-1.233 -2.086,-2.168 -0.51,-0.935 -0.765,-1.998 -0.765,-3.189 v 0 c 0,-1.195 0.255,-2.26 0.765,-3.196 0.506,-0.93 1.201,-1.65 2.086,-2.16 0.885,-0.505 1.886,-0.758 3.001,-0.758 z m 27.496,6.114 -0.022,-0.66 h -13.129 c 0.12,-1.63 0.747,-2.946 1.883,-3.946 1.13,-1.005 2.56,-1.508 4.291,-1.508 v 0 c 0.975,0 1.871,0.173 2.686,0.518 0.815,0.35 1.52,0.863 2.116,1.538 v 0 l 1.192,-1.373 c -0.695,-0.835 -1.565,-1.471 -2.61,-1.906 -1.041,-0.44 -2.189,-0.66 -3.444,-0.66 v 0 c -1.61,0 -3.036,0.345 -4.276,1.035 -1.246,0.686 -2.216,1.633 -2.911,2.844 -0.695,1.215 -1.043,2.588 -1.043,4.118 v 0 c 0,1.531 0.333,2.904 0.998,4.119 0.665,1.211 1.58,2.153 2.746,2.829 1.16,0.68 2.468,1.02 3.923,1.02 v 0 c 1.451,0 2.751,-0.34 3.902,-1.02 1.155,-0.676 2.06,-1.613 2.715,-2.814 0.656,-1.205 0.983,-2.583 0.983,-4.134 z m -7.6,6.145 c -1.515,0 -2.783,-0.483 -3.803,-1.448 -1.026,-0.965 -1.608,-2.223 -1.748,-3.774 v 0 h 11.126 c -0.14,1.551 -0.721,2.809 -1.741,3.774 -1.025,0.965 -2.303,1.448 -3.834,1.448 z m 20.189,-13.992 v 20.879 h 2.213 V -94.86 h 11.689 v -1.913 z m 23.303,-0.15 c -1.516,0 -2.879,0.345 -4.089,1.035 -1.216,0.686 -2.171,1.633 -2.866,2.844 -0.695,1.215 -1.043,2.588 -1.043,4.118 v 0 c 0,1.531 0.348,2.904 1.043,4.119 0.695,1.211 1.65,2.153 2.866,2.829 1.21,0.68 2.573,1.02 4.089,1.02 v 0 c 1.51,0 2.87,-0.34 4.081,-1.02 1.215,-0.676 2.165,-1.618 2.851,-2.829 0.685,-1.215 1.028,-2.588 1.028,-4.119 v 0 c 0,-1.53 -0.343,-2.903 -1.028,-4.118 -0.686,-1.211 -1.636,-2.158 -2.851,-2.844 -1.211,-0.69 -2.571,-1.035 -4.081,-1.035 z m 0,1.883 c 1.11,0 2.108,0.253 2.993,0.758 0.885,0.51 1.578,1.23 2.078,2.16 0.495,0.936 0.743,2.001 0.743,3.196 v 0 c 0,1.191 -0.248,2.254 -0.743,3.189 -0.5,0.935 -1.193,1.658 -2.078,2.168 -0.885,0.505 -1.883,0.758 -2.993,0.758 v 0 c -1.116,0 -2.116,-0.253 -3.001,-0.758 -0.886,-0.51 -1.581,-1.233 -2.086,-2.168 -0.51,-0.935 -0.765,-1.998 -0.765,-3.189 v 0 c 0,-1.195 0.255,-2.26 0.765,-3.196 0.505,-0.93 1.2,-1.65 2.086,-2.16 0.885,-0.505 1.885,-0.758 3.001,-0.758 z m 24.307,13.962 h 2.116 v -15.695 h -2.026 v 2.866 c -0.555,-0.955 -1.32,-1.696 -2.296,-2.221 -0.975,-0.53 -2.088,-0.795 -3.338,-0.795 v 0 c -2.051,0 -3.669,0.573 -4.854,1.718 -1.18,1.145 -1.771,2.821 -1.771,5.027 v 0 9.1 h 2.116 v -8.89 c 0,-1.651 0.408,-2.904 1.223,-3.759 0.815,-0.855 1.978,-1.283 3.489,-1.283 v 0 c 1.65,0 2.953,0.503 3.908,1.508 0.956,1 1.433,2.396 1.433,4.186 v 0 z m 19.154,0 h 2.085 l -6.977,-15.695 h -2.183 l -6.947,15.695 h 2.205 l 5.875,-13.369 z m 10.083,0.12 c 2.046,0 3.616,-0.513 4.711,-1.538 1.091,-1.025 1.636,-2.543 1.636,-4.554 v 0 -9.723 h -2.026 v 2.446 c -0.475,-0.815 -1.175,-1.451 -2.1,-1.906 -0.926,-0.46 -2.026,-0.69 -3.301,-0.69 v 0 c -1.746,0 -3.136,0.418 -4.172,1.253 -1.035,0.835 -1.553,1.94 -1.553,3.316 v 0 c 0,1.33 0.483,2.403 1.448,3.218 0.966,0.816 2.501,1.223 4.607,1.223 v 0 h 4.981 v 0.953 c 0,1.356 -0.377,2.386 -1.133,3.091 -0.755,0.705 -1.858,1.058 -3.308,1.058 v 0 c -0.995,0 -1.951,-0.165 -2.866,-0.495 -0.915,-0.325 -1.701,-0.778 -2.356,-1.358 v 0 l -0.953,1.583 c 0.796,0.675 1.748,1.198 2.859,1.568 1.115,0.37 2.291,0.555 3.526,0.555 z m -0.75,-14.292 c 1.195,0 2.22,0.273 3.076,0.818 0.855,0.55 1.49,1.34 1.905,2.371 v 0 2.565 h -4.921 c -2.686,0 -4.029,-0.932 -4.029,-2.798 v 0 c 0,-0.915 0.348,-1.638 1.043,-2.168 0.7,-0.525 1.675,-0.788 2.926,-0.788 z m 12.859,-1.523 v 15.695 h 2.115 v -15.695 z m 1.073,19.124 c -0.441,0 -0.808,0.147 -1.103,0.442 -0.3,0.3 -0.45,0.66 -0.45,1.081 v 0 c 0,0.395 0.15,0.742 0.45,1.042 0.295,0.295 0.662,0.443 1.103,0.443 v 0 c 0.435,0 0.802,-0.143 1.102,-0.428 0.3,-0.29 0.451,-0.632 0.451,-1.027 v 0 c 0,-0.441 -0.151,-0.811 -0.451,-1.111 -0.3,-0.295 -0.667,-0.442 -1.102,-0.442 z m 14.944,-3.309 c 1.971,0 3.536,-0.573 4.697,-1.718 1.165,-1.145 1.748,-2.811 1.748,-4.997 v 0 -9.1 h -2.123 v 8.89 c 0,1.631 -0.408,2.874 -1.223,3.729 -0.816,0.855 -1.978,1.283 -3.489,1.283 v 0 c -1.69,0 -3.028,-0.503 -4.014,-1.508 -0.98,-1.005 -1.47,-2.391 -1.47,-4.156 v 0 -8.238 h -2.123 v 15.695 h 2.033 v -2.896 c 0.575,0.955 1.375,1.696 2.401,2.221 1.025,0.53 2.213,0.795 3.563,0.795 z" /></g></g></g></g></g></g></svg>